<svg id="object" xmlns="http://www.w3.org/2000/svg" viewBox="0 0 351.95 541.4"><defs><style>.cls-1{fill:#527275;}.cls-2{fill:#fff;}.cls-3{opacity:0.04;}.cls-4{fill:#153e49;}.cls-5{fill:#e6e6e6;}.cls-6{opacity:0.22;}.cls-7{fill:#8cad81;}.cls-8{fill:#f7d77f;}.cls-9{fill:#e5c573;}</style></defs><rect class="cls-1" y="60.71" width="351.95" height="480.69" rx="21.37"/><rect class="cls-2" x="23.05" y="98.63" width="305.85" height="417.73" rx="5.62"/><path class="cls-3" d="M334.91,540.61l-313.54.31C16.29,542,2,538.08,0,522.43L1.21,82.77Z"/><path class="cls-4" d="M113.14,240.72H41.36V168.94h71.78Zm-69.2-2.58h66.63V171.51H43.94Z"/><path class="cls-4" d="M113.14,349.1H41.36V277.33h71.78Zm-69.2-2.57h66.63V279.9H43.94Z"/><path class="cls-4" d="M113.14,457.49H41.36V385.71h71.78Zm-69.2-2.58h66.63V388.28H43.94Z"/><rect class="cls-5" x="151.33" y="174.84" width="147.85" height="7.36"/><rect class="cls-5" x="151.33" y="197.47" width="147.85" height="7.36"/><rect class="cls-5" x="151.33" y="220.09" width="147.85" height="7.36"/><rect class="cls-5" x="151.33" y="285.62" width="147.85" height="7.36"/><rect class="cls-5" x="151.33" y="308.25" width="147.85" height="7.36"/><rect class="cls-5" x="151.33" y="330.87" width="147.85" height="7.36"/><rect class="cls-5" x="151.33" y="389.7" width="147.85" height="7.36"/><rect class="cls-5" x="151.33" y="412.33" width="147.85" height="7.36"/><rect class="cls-5" x="151.33" y="434.95" width="147.85" height="7.36"/><polygon class="cls-6" points="124.67 160.13 73.48 197.78 59.7 183.8 46.54 192.6 72.91 213.38 133.49 162.53 124.67 160.13"/><polygon class="cls-7" points="49.22 189.29 58.49 183.09 72.32 197.13 124.17 159 128.07 160.06 71.93 207.19 49.22 189.29"/><path class="cls-7" d="M72,208.16l-24-18.92,10.66-7.13,13.81,14,51.62-38,5.65,1.54ZM50.51,189.34l21.41,16.87,54.55-45.8-2.14-.58L72.24,198.14,58.39,184.08Z"/><polygon class="cls-6" points="129.91 281.85 78.71 319.5 64.94 305.52 51.77 314.32 78.14 335.1 138.72 284.25 129.91 281.85"/><polygon class="cls-7" points="54.45 311.01 63.72 304.81 77.55 318.85 129.4 280.72 133.3 281.78 77.16 328.9 54.45 311.01"/><path class="cls-7" d="M77.18,329.88,53.16,311l10.66-7.13,13.81,14,51.62-38,5.65,1.54ZM55.74,311.06l21.41,16.86,54.55-45.79-2.14-.58-52.09,38.3L63.62,305.79Z"/><polygon class="cls-6" points="129.91 381.71 78.71 419.36 64.94 405.37 51.77 414.18 78.14 434.95 138.72 384.1 129.91 381.71"/><polygon class="cls-7" points="54.45 410.87 63.72 404.67 77.55 418.71 129.4 380.58 133.3 381.64 77.16 428.76 54.45 410.87"/><path class="cls-7" d="M77.18,429.74l-24-18.92,10.66-7.13,13.81,14,51.62-38,5.65,1.53ZM55.74,410.92l21.41,16.86L131.7,382l-2.14-.58-52.09,38.3L63.62,405.65Z"/><path class="cls-8" d="M273.11,48.77H220.8V41.3A41.3,41.3,0,0,0,179.51,0h-.84a41.3,41.3,0,0,0-41.3,41.3v7.47H85.06a4.89,4.89,0,0,0-4.89,4.9v52.78a4.9,4.9,0,0,0,4.89,4.9H273.11a4.9,4.9,0,0,0,4.9-4.9V53.67A4.9,4.9,0,0,0,273.11,48.77Zm-94-4.91a13.8,13.8,0,1,1,13.8-13.8A13.8,13.8,0,0,1,179.09,43.86Z"/><rect class="cls-9" x="80.17" y="94.49" width="197.85" height="8.28"/><path class="cls-9" d="M277.11,108.57H81.26a1.09,1.09,0,0,1-1.09-1.09v-2.55H278v2.74A.9.9,0,0,1,277.11,108.57Z"/></svg>